<svg width="20" height="20" viewBox="0 0 20 20" fill="none" xmlns="http://www.w3.org/2000/svg">
<path fill-rule="evenodd" clip-rule="evenodd" d="M5 2.5C5 3.88071 3.88071 5 2.5 5C1.11929 5 0 3.88071 0 2.5C0 1.11929 1.11929 0 2.5 0C3.88071 0 5 1.11929 5 2.5ZM12.5 2.5C12.5 3.88071 11.3807 5 10 5C8.61929 5 7.5 3.88071 7.5 2.5C7.5 1.11929 8.61929 0 10 0C11.3807 0 12.5 1.11929 12.5 2.5ZM17.5 5C18.8807 5 20 3.88071 20 2.5C20 1.11929 18.8807 0 17.5 0C16.1193 0 15 1.11929 15 2.5C15 3.88071 16.1193 5 17.5 5ZM5 10C5 11.3807 3.88071 12.5 2.5 12.5C1.11929 12.5 0 11.3807 0 10C0 8.61929 1.11929 7.5 2.5 7.5C3.88071 7.5 5 8.61929 5 10ZM12.5 10C12.5 11.3807 11.3807 12.5 10 12.5C8.61929 12.5 7.5 11.3807 7.5 10C7.5 8.61929 8.61929 7.5 10 7.5C11.3807 7.5 12.5 8.61929 12.5 10ZM17.5 12.5C18.8807 12.5 20 11.3807 20 10C20 8.61929 18.8807 7.5 17.5 7.5C16.1193 7.5 15 8.61929 15 10C15 11.3807 16.1193 12.5 17.5 12.5ZM2.5 20C3.88071 20 5 18.8807 5 17.5C5 16.1193 3.88071 15 2.5 15C1.11929 15 0 16.1193 0 17.5C0 18.8807 1.11929 20 2.5 20ZM10 20C11.3807 20 12.5 18.8807 12.5 17.5C12.5 16.1193 11.3807 15 10 15C8.61929 15 7.5 16.1193 7.5 17.5C7.5 18.8807 8.61929 20 10 20ZM20 17.5C20 18.8807 18.8807 20 17.5 20C16.1193 20 15 18.8807 15 17.5C15 16.1193 16.1193 15 17.5 15C18.8807 15 20 16.1193 20 17.5Z" fill="black"/>
</svg>
