<svg width="28" height="28" viewBox="0 0 28 28" fill="none" xmlns="http://www.w3.org/2000/svg">
<path fill-rule="evenodd" clip-rule="evenodd" d="M15.7678 5.16115C14.7915 6.13746 13.2085 6.13746 12.2322 5.16115C11.2559 4.18484 11.2559 2.60193 12.2322 1.62562C13.2085 0.649305 14.7915 0.649306 15.7678 1.62562C16.7441 2.60193 16.7441 4.18484 15.7678 5.16115ZM21.0711 10.4645C20.0948 11.4408 18.5118 11.4408 17.5355 10.4645C16.5592 9.48814 16.5592 7.90523 17.5355 6.92892C18.5118 5.95261 20.0948 5.95261 21.0711 6.92892C22.0474 7.90523 22.0474 9.48814 21.0711 10.4645ZM22.8388 15.7678C23.8151 16.7441 25.3981 16.7441 26.3744 15.7678C27.3507 14.7914 27.3507 13.2085 26.3744 12.2322C25.3981 11.2559 23.8151 11.2559 22.8388 12.2322C21.8625 13.2085 21.8625 14.7914 22.8388 15.7678ZM10.4645 10.4645C9.48816 11.4408 7.90524 11.4408 6.92893 10.4645C5.95262 9.48814 5.95262 7.90523 6.92893 6.92892C7.90524 5.95261 9.48816 5.95261 10.4645 6.92892C11.4408 7.90523 11.4408 9.48814 10.4645 10.4645ZM15.7678 15.7678C14.7915 16.7441 13.2085 16.7441 12.2322 15.7678C11.2559 14.7914 11.2559 13.2085 12.2322 12.2322C13.2085 11.2559 14.7915 11.2559 15.7678 12.2322C16.7441 13.2085 16.7441 14.7914 15.7678 15.7678ZM17.5355 21.0711C18.5118 22.0474 20.0948 22.0474 21.0711 21.0711C22.0474 20.0947 22.0474 18.5118 21.0711 17.5355C20.0948 16.5592 18.5118 16.5592 17.5355 17.5355C16.5592 18.5118 16.5592 20.0947 17.5355 21.0711ZM1.62563 15.7678C2.60194 16.7441 4.18486 16.7441 5.16117 15.7678C6.13748 14.7914 6.13748 13.2085 5.16117 12.2322C4.18485 11.2559 2.60194 11.2559 1.62563 12.2322C0.649322 13.2085 0.649321 14.7914 1.62563 15.7678ZM6.92893 21.0711C7.90524 22.0474 9.48816 22.0474 10.4645 21.0711C11.4408 20.0947 11.4408 18.5118 10.4645 17.5355C9.48815 16.5592 7.90524 16.5592 6.92893 17.5355C5.95262 18.5118 5.95262 20.0947 6.92893 21.0711ZM15.7678 26.3744C14.7915 27.3507 13.2085 27.3507 12.2322 26.3744C11.2559 25.398 11.2559 23.8151 12.2322 22.8388C13.2085 21.8625 14.7915 21.8625 15.7678 22.8388C16.7441 23.8151 16.7441 25.398 15.7678 26.3744Z" fill="#1A66FF"/>
</svg>
