<svg width="32" height="32" viewBox="0 0 32 32" fill="none" xmlns="http://www.w3.org/2000/svg">
<path d="M16 0C17.1046 0 18 0.89543 18 2V17.1716L24.5858 10.5858C25.3668 9.80474 26.6332 9.80474 27.4142 10.5858C28.1953 11.3668 28.1953 12.6332 27.4142 13.4142L17.4142 23.4142C16.6332 24.1953 15.3668 24.1953 14.5858 23.4142L4.58579 13.4142C3.80474 12.6332 3.80474 11.3668 4.58579 10.5858C5.36684 9.80474 6.63316 9.80474 7.41421 10.5858L14 17.1716V2C14 0.89543 14.8954 0 16 0Z" fill="black"/>
<path d="M0 30C0 28.8954 0.89543 28 2 28H30C31.1046 28 32 28.8954 32 30C32 31.1046 31.1046 32 30 32H2C0.89543 32 0 31.1046 0 30Z" fill="black"/>
</svg>
