<svg width="128" height="32" viewBox="0 0 128 32" fill="none" xmlns="http://www.w3.org/2000/svg">
<path d="M1.5909 6.879H0V0.172973H1.10037V5.36216H1.39204L4.32195 0.172973H5.96588V6.879H4.86551V1.68981H4.57384L1.5909 6.879Z" fill="black"/>
<path d="M14.0962 6.879H12.9693V3.92515H9.27042V6.879H8.14353V0.172973H9.27042V2.94054H12.9693V0.172973H14.0962V6.879Z" fill="black"/>
<path d="M20.7949 4.85655H21.9218C21.7892 5.5307 21.4755 6.06736 20.9805 6.46652C20.4944 6.85682 19.8713 7.05197 19.1112 7.05197C18.1037 7.05197 17.3082 6.72377 16.7249 6.06736C16.1504 5.40208 15.8631 4.55495 15.8631 3.52599C15.8631 2.48815 16.1504 1.64102 16.7249 0.984615C17.2994 0.328205 18.0948 0 19.1112 0C19.8802 0 20.5033 0.195149 20.9805 0.585447C21.4666 0.966874 21.7671 1.47692 21.882 2.11559H20.7552C20.5165 1.36161 19.9685 0.984615 19.1112 0.984615C18.3953 0.984615 17.8606 1.22412 17.5071 1.70312C17.1624 2.17325 16.99 2.772 16.99 3.49937C16.99 4.23562 17.1668 4.84768 17.5203 5.33555C17.8739 5.82342 18.4042 6.06736 19.1112 6.06736C20.0481 6.06736 20.6093 5.66375 20.7949 4.85655Z" fill="black"/>
<path d="M22.9126 1.15759V0.172973H28.6664V1.15759H26.3596V6.879H25.2327V1.15759H22.9126Z" fill="black"/>
<path d="M31.744 6.879H30.1531V0.172973H31.2535V5.36216H31.5451L34.475 0.172973H36.119V6.879H35.0186V1.68981H34.7269L31.744 6.879Z" fill="black"/>
<path d="M37.6072 1.15759V0.172973H43.361V1.15759H41.0542V6.879H39.9273V1.15759H37.6072Z" fill="black"/>
<path d="M46.6507 9.54012H45.5106L46.8894 6.25363L44.039 0.172973H45.2454L47.2871 4.59043H47.6185L49.4746 0.172973H50.6545L46.6507 9.54012Z" fill="black"/>
<path d="M51.292 1.15759V0.172973H57.0457V1.15759H54.7389V6.879H53.612V1.15759H51.292Z" fill="black"/>
<path d="M4.61362 19.353L3.12877 16.3992H1.12689V19.353H0V12.647H1.12689V15.4145H3.15529L4.54733 12.647H5.72725L4.09657 15.8802L5.82005 19.353H4.61362Z" fill="black"/>
<path d="M7.68832 13.4719C8.28049 12.8066 9.08478 12.474 10.1012 12.474C11.1176 12.474 11.9175 12.8066 12.5008 13.4719C13.093 14.1372 13.3891 14.9799 13.3891 16C13.3891 17.0201 13.093 17.8628 12.5008 18.5281C11.9175 19.1933 11.1176 19.526 10.1012 19.526C9.08478 19.526 8.28049 19.1933 7.68832 18.5281C7.10499 17.8628 6.81333 17.0201 6.81333 16C6.81333 14.9799 7.10499 14.1372 7.68832 13.4719ZM8.49703 17.8096C8.86824 18.2974 9.40296 18.5414 10.1012 18.5414C10.7994 18.5414 11.3341 18.2974 11.7054 17.8096C12.0766 17.3128 12.2622 16.7096 12.2622 16C12.2622 15.2904 12.0766 14.6916 11.7054 14.2037C11.3341 13.707 10.7994 13.4586 10.1012 13.4586C9.40296 13.4586 8.86824 13.707 8.49703 14.2037C8.12582 14.6916 7.94022 15.2904 7.94022 16C7.94022 16.7096 8.12582 17.3128 8.49703 17.8096Z" fill="black"/>
<path d="M15.1477 19.353V12.647H16.9375L18.5814 15.7073H18.8731L20.517 12.647H22.2803V19.353H21.1799V13.9642H20.8883L19.3371 16.8382H18.0909L16.5398 13.9642H16.2481V19.353H15.1477Z" fill="black"/>
<path d="M30.3561 19.353H29.2292V13.6316H25.5834V19.353H24.4565V12.647H30.3561V19.353Z" fill="black"/>
<path d="M33.6622 12.647V14.8823H35.6376C36.4418 14.8823 37.0605 15.0775 37.4936 15.4678C37.9355 15.8581 38.1565 16.4036 38.1565 17.1044C38.1565 17.814 37.9355 18.3684 37.4936 18.7676C37.0605 19.1579 36.4418 19.353 35.6376 19.353H32.5353V12.647H33.6622ZM33.6622 18.3684H35.4785C36.0353 18.3684 36.433 18.2619 36.6716 18.0491C36.9103 17.8362 37.0296 17.5213 37.0296 17.1044C37.0296 16.6874 36.9103 16.3725 36.6716 16.1597C36.433 15.9468 36.0353 15.8403 35.4785 15.8403H33.6622V18.3684Z" fill="black"/>
<path d="M45.6062 12.474C46.5961 12.474 47.3827 12.8111 47.966 13.4852C48.5493 14.1505 48.841 14.9888 48.841 16C48.841 17.0112 48.5493 17.8539 47.966 18.5281C47.3827 19.1933 46.5961 19.526 45.6062 19.526C44.687 19.526 43.9401 19.2333 43.3656 18.6478C42.8 18.0624 42.4774 17.3128 42.3979 16.3992H40.8732V19.353H39.7596V12.647H40.8732V15.4145H42.4376C42.5437 14.5364 42.8751 13.8267 43.4319 13.2856C43.9976 12.7446 44.7223 12.474 45.6062 12.474ZM44.0418 17.8096C44.4042 18.2974 44.9256 18.5414 45.6062 18.5414C46.2867 18.5414 46.8082 18.2974 47.1706 17.8096C47.5329 17.3128 47.7141 16.7096 47.7141 16C47.7141 15.2904 47.5329 14.6916 47.1706 14.2037C46.8082 13.707 46.2867 13.4586 45.6062 13.4586C44.9256 13.4586 44.4042 13.707 44.0418 14.2037C43.6794 14.6916 43.4982 15.2904 43.4982 16C43.4982 16.7096 43.6794 17.3128 44.0418 17.8096Z" fill="black"/>
<path d="M49.7901 13.6316V12.647H55.5439V13.6316H53.2371V19.353H52.1102V13.6316H49.7901Z" fill="black"/>
<path d="M62.7206 15.6008V15.9867H57.6297C57.6474 16.7939 57.8374 17.4237 58.1998 17.8761C58.5621 18.3196 59.0836 18.5414 59.7642 18.5414C60.6833 18.5414 61.249 18.1954 61.4611 17.5035H62.6013C62.4864 18.1067 62.1814 18.5946 61.6865 18.9671C61.2004 19.3397 60.5596 19.526 59.7642 19.526C58.7477 19.526 57.9523 19.1933 57.3778 18.5281C56.8033 17.8628 56.5161 16.9979 56.5161 15.9335C56.5161 14.8868 56.8033 14.0485 57.3778 13.4187C57.9523 12.7889 58.7389 12.474 59.7376 12.474C60.6833 12.474 61.4125 12.7756 61.9251 13.3788C62.4378 13.9731 62.7029 14.7138 62.7206 15.6008ZM59.7111 13.4586C59.1366 13.4586 58.677 13.6094 58.3323 13.911C57.9876 14.2037 57.7755 14.5807 57.696 15.042H61.5539C61.5186 14.5896 61.3374 14.2126 61.0104 13.911C60.6833 13.6094 60.2503 13.4586 59.7111 13.4586Z" fill="black"/>
<path d="M67.6833 13.4586C66.9851 13.4586 66.4592 13.7026 66.1057 14.1904C65.761 14.6783 65.5887 15.2815 65.5887 16C65.5887 16.7185 65.761 17.3217 66.1057 17.8096C66.4592 18.2974 66.9851 18.5414 67.6833 18.5414C68.3374 18.5414 68.8412 18.3107 69.1947 17.8495C69.5571 17.3793 69.7383 16.7628 69.7383 16C69.7383 15.2371 69.5571 14.6251 69.1947 14.1638C68.8412 13.6937 68.3374 13.4586 67.6833 13.4586ZM64.475 12.647H65.5621V13.3655H65.8538C66.3311 12.7712 67.0249 12.474 67.9352 12.474C68.8368 12.474 69.5482 12.8066 70.0697 13.4719C70.6 14.1372 70.8651 14.9799 70.8651 16C70.8651 17.0378 70.6 17.8849 70.0697 18.5414C69.5482 19.1978 68.8368 19.526 67.9352 19.526C67.0161 19.526 66.3355 19.2288 65.8936 18.6345H65.6019V22.0141H64.475V12.647Z" fill="black"/>
<path d="M78.5841 19.353H77.4572V16.3992H73.7584V19.353H72.6315V12.647H73.7584V15.4145H77.4572V12.647H78.5841V19.353Z" fill="black"/>
<path d="M80.7621 12.647H81.889V14.8823H83.7318C84.5361 14.8823 85.1547 15.0775 85.5878 15.4678C86.0297 15.8581 86.2507 16.4036 86.2507 17.1044C86.2507 17.814 86.0297 18.3684 85.5878 18.7676C85.1547 19.1579 84.5361 19.353 83.7318 19.353H80.7621V12.647ZM81.889 15.8403V18.3684H83.5727C84.1295 18.3684 84.5272 18.2619 84.7659 18.0491C85.0045 17.8362 85.1238 17.5213 85.1238 17.1044C85.1238 16.6874 85.0045 16.3725 84.7659 16.1597C84.5272 15.9468 84.1295 15.8403 83.5727 15.8403H81.889ZM87.3246 12.647H88.4515V19.353H87.3246V12.647Z" fill="black"/>
<path d="M95.0953 19.353L93.4381 16.5455H92.9609L91.2639 19.353H90.031L92.1124 15.9202L90.2431 12.647H91.4362L92.9741 15.3081H93.4514L95.0158 12.647H96.1957L94.2999 15.8802L96.3681 19.353H95.0953Z" fill="black"/>
<path d="M105.592 19.353H104.465V16.3992H100.766V19.353H99.6395V12.647H100.766V15.4145H104.465V12.647H105.592V19.353Z" fill="black"/>
<path d="M112.026 19.353V18.6478H111.734C111.275 19.2333 110.581 19.526 109.653 19.526C108.919 19.526 108.336 19.3131 107.903 18.8873C107.47 18.4615 107.253 17.947 107.253 17.3439C107.253 16.7318 107.465 16.2084 107.889 15.7738C108.314 15.3391 108.954 15.1218 109.812 15.1218H111.986V14.8557C111.986 14.4299 111.853 14.0929 111.588 13.8445C111.323 13.5872 110.912 13.4586 110.355 13.4586C109.383 13.4586 108.866 13.7824 108.804 14.4299H107.677C107.722 13.8179 107.982 13.3389 108.46 12.9929C108.946 12.647 109.569 12.474 110.329 12.474C111.186 12.474 111.858 12.6736 112.344 13.0728C112.839 13.4719 113.086 14.0441 113.086 14.7892V19.353H112.026ZM109.931 18.5414C110.488 18.5414 110.97 18.3595 111.376 17.9958C111.783 17.6233 111.986 17.1709 111.986 16.6387V16.0266H109.984C108.915 16.0266 108.38 16.4524 108.38 17.3039C108.38 17.6854 108.513 17.987 108.778 18.2087C109.052 18.4305 109.436 18.5414 109.931 18.5414Z" fill="black"/>
<path d="M116.849 22.0141H115.709L117.088 18.7276L114.238 12.647H115.444L117.486 17.0644H117.817L119.673 12.647H120.853L116.849 22.0141Z" fill="black"/>
<path d="M126.794 19.353L125.309 16.3992H123.307V19.353H122.18V12.647H123.307V15.4145H125.335L126.727 12.647H127.907L126.276 15.8802L128 19.353H126.794Z" fill="black"/>
<path d="M1.5909 31.827H0V25.121H1.10037V30.3102H1.39204L4.32195 25.121H5.96588V31.827H4.86551V26.6378H4.57384L1.5909 31.827Z" fill="black"/>
<path d="M10.6132 26.1056V25.121H16.3669V26.1056H14.0601V31.827H12.9332V26.1056H10.6132Z" fill="black"/>
<path d="M23.5436 28.0748V28.4607H18.4527C18.4704 29.2679 18.6604 29.8977 19.0228 30.3501C19.3851 30.7936 19.9066 31.0154 20.5872 31.0154C21.5063 31.0154 22.072 30.6694 22.2841 29.9775H23.4243C23.3094 30.5807 23.0044 31.0686 22.5095 31.4411C22.0234 31.8137 21.3826 32 20.5872 32C19.5707 32 18.7753 31.6673 18.2008 31.0021C17.6263 30.3368 17.3391 29.4719 17.3391 28.4075C17.3391 27.3608 17.6263 26.5225 18.2008 25.8927C18.7753 25.2629 19.5619 24.948 20.5606 24.948C21.5063 24.948 22.2355 25.2496 22.7481 25.8528C23.2608 26.4471 23.5259 27.1878 23.5436 28.0748ZM20.5341 25.9326C19.9596 25.9326 19.5 26.0834 19.1553 26.385C18.8107 26.6777 18.5985 27.0547 18.519 27.516H22.3769C22.3416 27.0636 22.1604 26.6866 21.8334 26.385C21.5063 26.0834 21.0733 25.9326 20.5341 25.9326Z" fill="black"/>
<path d="M29.5716 31.827L27.9144 29.0195H27.4372L25.7402 31.827H24.5072L26.5887 28.3942L24.7194 25.121H25.9125L27.4504 27.7821H27.9277L29.4921 25.121H30.672L28.7762 28.3542L30.8443 31.827H29.5716Z" fill="black"/>
<path d="M38.3714 31.827H37.2445V28.8732H33.5457V31.827H32.4188V25.121H33.5457V27.8885H37.2445V25.121H38.3714V31.827Z" fill="black"/>
<path d="M41.0134 25.9459C41.6055 25.2806 42.4098 24.948 43.4262 24.948C44.4426 24.948 45.2425 25.2806 45.8258 25.9459C46.418 26.6112 46.7141 27.4539 46.7141 28.474C46.7141 29.4941 46.418 30.3368 45.8258 31.0021C45.2425 31.6673 44.4426 32 43.4262 32C42.4098 32 41.6055 31.6673 41.0134 31.0021C40.43 30.3368 40.1384 29.4941 40.1384 28.474C40.1384 27.4539 40.43 26.6112 41.0134 25.9459ZM41.8221 30.2836C42.1933 30.7714 42.728 31.0154 43.4262 31.0154C44.1245 31.0154 44.6592 30.7714 45.0304 30.2836C45.4016 29.7868 45.5872 29.1836 45.5872 28.474C45.5872 27.7644 45.4016 27.1656 45.0304 26.6777C44.6592 26.181 44.1245 25.9326 43.4262 25.9326C42.728 25.9326 42.1933 26.181 41.8221 26.6777C41.4509 27.1656 41.2653 27.7644 41.2653 28.474C41.2653 29.1836 41.4509 29.7868 41.8221 30.2836Z" fill="black"/>
<path d="M47.7171 31.827V30.7626H47.9425C48.4109 30.7626 48.7468 30.5452 48.9501 30.1106C49.1533 29.6671 49.255 28.8687 49.255 27.7156V25.121H54.3724V31.827H53.2322V26.1056H50.3023V27.7422C50.3023 29.259 50.1167 30.319 49.7455 30.9222C49.3831 31.5254 48.7821 31.827 47.9425 31.827H47.7171Z" fill="black"/>
<path d="M57.0027 25.9459C57.5948 25.2806 58.3991 24.948 59.4155 24.948C60.4319 24.948 61.2318 25.2806 61.8151 25.9459C62.4073 26.6112 62.7034 27.4539 62.7034 28.474C62.7034 29.4941 62.4073 30.3368 61.8151 31.0021C61.2318 31.6673 60.4319 32 59.4155 32C58.3991 32 57.5948 31.6673 57.0027 31.0021C56.4193 30.3368 56.1277 29.4941 56.1277 28.474C56.1277 27.4539 56.4193 26.6112 57.0027 25.9459ZM57.8114 30.2836C58.1826 30.7714 58.7173 31.0154 59.4155 31.0154C60.1138 31.0154 60.6485 30.7714 61.0197 30.2836C61.3909 29.7868 61.5765 29.1836 61.5765 28.474C61.5765 27.7644 61.3909 27.1656 61.0197 26.6777C60.6485 26.181 60.1138 25.9326 59.4155 25.9326C58.7173 25.9326 58.1826 26.181 57.8114 26.6777C57.4402 27.1656 57.2545 27.7644 57.2545 28.474C57.2545 29.1836 57.4402 29.7868 57.8114 30.2836Z" fill="black"/>
<path d="M64.4621 31.827V25.121H69.4734V26.1056H65.589V31.827H64.4621Z" fill="black"/>
<path d="M72.5652 31.827H70.9743V25.121H72.0747V30.3102H72.3664L75.2963 25.121H76.9402V31.827H75.8398V26.6378H75.5482L72.5652 31.827Z" fill="black"/>
<path d="M80.7087 31.827H79.1178V25.121H80.2182V30.3102H80.5099L83.4398 25.121H85.0837V31.827H83.9834V26.6378H83.6917L80.7087 31.827ZM83.2277 22.1937H84.1424C84.1248 22.8147 83.9347 23.2937 83.5724 23.6308C83.21 23.9678 82.7106 24.1364 82.0743 24.1364C81.4467 24.1364 80.9518 23.9678 80.5894 23.6308C80.2271 23.2937 80.037 22.8147 80.0194 22.1937H80.9341C80.9518 22.9477 81.3319 23.3247 82.0743 23.3247C82.799 23.3247 83.1835 22.9477 83.2277 22.1937Z" fill="black"/>
</svg>
