<svg width="240" height="64" viewBox="0 0 240 64" fill="none" xmlns="http://www.w3.org/2000/svg">
<path d="M203.733 20.5334L197.511 27.5556V20.4445H193.067V38.2223H197.511V30.8445L204.178 38.2223H209.867L201.867 29.0667L209.333 20.6223H203.733V20.5334ZM185.245 27.1112H179.022V20.5334H174.578V38.2223H179.022V31.2889H185.245V38.2223H189.689V20.5334H185.245V27.1112ZM55.8224 30.1334C55.7335 33.3334 55.2891 34.0445 53.4224 34.0445V38.1334H54.1335C58.6668 38.1334 59.8224 35.8223 60.0002 30.4889L60.1779 24.6223H64.4446V38.2223H68.8891V20.5334H56.0002L55.8224 30.2223V30.1334ZM80.0002 25.9556H76.7113V20.6223H72.2668V38.1334H80.0002C84.8891 38.1334 86.5779 34.9334 86.5779 31.9112C86.5779 28.0889 84.1779 25.9556 79.9113 25.9556H80.0002ZM79.6446 34.3111H76.7113V29.8667H79.6446C81.1557 29.8667 82.1335 30.4889 82.1335 32C82.1335 33.6 81.2446 34.3111 79.6446 34.3111ZM101.156 20.1778V13.6H96.7113V20.1778C95.5362 20.2008 94.3774 20.4566 93.3018 20.9303C92.2263 21.4041 91.2554 22.0864 90.4452 22.9379C89.6351 23.7893 89.0019 24.793 88.5822 25.8907C88.1625 26.9885 87.9647 28.1586 88.0002 29.3334C87.9526 30.5081 88.1386 31.6806 88.5474 32.783C88.9561 33.8854 89.5795 34.8957 90.3814 35.7555C91.1834 36.6153 92.1479 37.3075 93.2192 37.7919C94.2904 38.2764 95.4472 38.5435 96.6224 38.5778V45.1556H101.067V38.5778C102.234 38.532 103.382 38.2565 104.443 37.767C105.504 37.2775 106.458 36.5835 107.25 35.7249C108.043 34.8663 108.658 33.8598 109.062 32.7631C109.465 31.6664 109.648 30.5009 109.6 29.3334C109.672 26.9905 108.816 24.7139 107.218 22.9992C105.62 21.2845 103.409 20.2705 101.067 20.1778H101.156ZM96.7113 34.3111C94.2224 33.9556 92.6224 32.0889 92.6224 29.3334C92.6224 26.6667 94.2224 24.7112 96.7113 24.3556V34.3111ZM101.156 34.3111V24.3556C103.645 24.7112 105.156 26.5778 105.156 29.3334C105.156 32.0889 103.645 33.9556 101.156 34.3111ZM126.4 32.8V26.8445C126.4 22.4889 123.733 19.7334 119.111 19.7334C114.4 19.7334 111.822 22.6667 111.645 25.6889H116.089C116.267 25.0667 116.978 23.9112 119.111 23.9112C120.889 23.9112 121.956 24.8 121.956 26.8445H117.511C113.511 26.8445 111.2 28.9778 111.2 32.4445C111.2 36.0889 113.778 38.6667 117.422 38.6667C120.178 38.6667 121.689 37.3334 122.4 36.3556C122.933 37.5112 124.267 38.1334 125.956 38.1334H127.556V34.1334C126.667 34.1334 126.4 33.6889 126.4 32.7111V32.8ZM121.956 31.5556C121.956 33.6 120.533 34.7556 118.667 34.7556C117.067 34.7556 115.733 34.2223 115.733 32.4445C115.733 30.6667 117.156 30.4 118.4 30.4H121.956V31.5556ZM145.511 23.1112H140.445V18.1334H152V13.6889H135.733V38.1334H145.422C150.756 38.1334 153.867 35.4667 153.867 30.5778C153.867 25.8667 150.756 23.1112 145.422 23.1112H145.511ZM145.333 33.7778H140.445V27.3778H145.156C147.645 27.3778 149.067 28.5334 149.067 30.4889C149.067 32.6223 147.645 33.6889 145.156 33.6889M171.022 32.8V26.8445C171.022 22.4889 168.267 19.7334 163.645 19.7334C158.934 19.8223 156.445 22.6667 156.267 25.6889H160.711C160.889 25.0667 161.6 23.9112 163.645 23.9112C165.422 23.9112 166.578 24.8 166.578 26.8445H162.133C158.133 26.8445 155.822 28.9778 155.822 32.4445C155.822 36.0889 158.4 38.6667 162.045 38.6667C164.711 38.6667 166.311 37.3334 166.934 36.3556C167.556 37.5112 168.889 38.1334 170.489 38.1334H172.089V34.1334C171.289 34.1334 171.022 33.6889 171.022 32.7111V32.8ZM166.578 31.5556C166.578 33.6 165.067 34.7556 163.2 34.7556C161.6 34.7556 160.356 34.2223 160.356 32.4445C160.356 30.6667 161.778 30.4 163.022 30.4H166.578V31.5556ZM53.1557 45.6889H29.3335V50.6667H53.1557V45.6889ZM45.6002 16.9778C44.8891 14.9334 44.0891 13.3334 41.4224 13.3334C38.7557 13.3334 37.8668 14.9334 37.2446 16.9778L29.8668 38.2223H34.6668L36.3557 33.2445H45.7779L47.3779 38.2223H52.5335L45.4224 17.0667L45.6002 16.9778ZM37.8668 28.8889L41.1557 18.8445H41.3335L44.4446 28.8889H37.8668Z" fill="white"/>
</svg>
