<svg width="240" height="64" viewBox="0 0 240 64" fill="none" xmlns="http://www.w3.org/2000/svg">
<path d="M64.0001 46.5778C63.9112 45.6889 64.4445 41.6889 64.4445 41.6889C65.9762 41.92 67.5192 42.0683 69.0668 42.1333C69.0668 42.1333 68.1779 45.2445 68.7112 45.9556C69.8668 47.5556 76.2668 51.5556 77.7779 53.0667C78.489 53.7778 79.2001 54.4889 80.1779 55.1111C80.8001 55.6445 82.8446 55.7333 83.4668 56.2667C83.8223 56.6222 84.2668 57.7778 84.0001 58.0445H80.1779C79.5557 58.0445 78.8445 57.5111 78.8445 57.5111C78.8445 57.5111 78.4001 57.9556 77.7779 57.6889C76.6223 57.1556 76.889 56 76.1779 55.1111C75.8223 54.7556 70.4001 51.3778 66.9334 49.4222C64.0001 47.8222 64.089 47.8222 64.0001 46.5778ZM42.6668 36.0889C41.9557 35.4667 39.5557 37.5111 38.9334 37.3333C38.2223 37.1556 38.9334 35.5556 38.3112 35.6445C37.4223 35.8222 37.2445 37.6889 36.5334 37.7778C35.3779 38.2222 34.6668 36.5333 34.6668 34.4889C34.6125 33.3134 34.8927 32.1466 35.4749 31.1239C36.057 30.1013 36.9172 29.2646 37.9557 28.7111C40.8319 27.2094 44.181 26.8904 47.289 27.8222C50.0446 26.4889 53.7779 22.2222 61.9557 22.0445C70.1334 21.8667 73.2446 25.7778 74.9334 24.8889C76.7112 24 77.2445 21.7778 76.889 20.1778C76.1779 17.1556 74.7557 15.4667 73.6001 12.7111C72.889 11.0222 72.889 8.8889 73.7779 7.11112C74.2223 6.40001 75.1112 5.51112 76.6223 5.33334C78.0445 5.15557 78.4001 6.40001 79.4668 6.66668C80.5334 7.02223 82.6668 7.20001 82.8445 8.00001C83.0223 8.71112 80.4446 9.33334 79.8223 9.24446C78.4001 9.15557 77.5112 10.0445 77.6001 11.6445C77.689 13.6889 78.2223 14.4 80.1779 17.3333C82.1334 20.2667 82.0445 25.0667 79.5557 28.4445C78.8446 29.4222 77.9557 30.2222 77.4223 31.3778C76.9779 32.2667 77.4223 30.4889 77.4223 34.0445C77.4223 37.6 75.5557 39.3778 73.0668 40.1778C69.7779 41.1556 66.9334 40.8 64.0001 40.4445C60.0001 40 56.889 40.0889 55.2001 40.4445C53.7779 40.8 49.3334 43.2889 48.8001 44.4445C48.4446 44.9778 46.9334 51.3778 46.5779 52.8C46.5779 53.3333 46.5779 54.5778 46.3112 55.0222C45.9557 55.6445 42.3112 57.8667 41.0668 58.3111C40.5334 58.4889 39.289 58.7556 39.2001 58.5778C38.3112 57.6889 38.3112 57.5111 40.7112 55.9111C39.9112 54.1333 42.3112 53.7778 43.0223 52.9778C43.7334 52.0889 45.1557 42.3111 45.689 41.1556C46.1334 39.8222 48.0001 39.3778 48.7112 38.3111C48.3557 37.8667 47.8223 38.1333 46.5779 38.4889C45.4223 38.7556 43.1112 39.5556 42.5779 39.2C42.1334 38.7556 43.289 36.5333 42.5779 36.0889H42.6668ZM106.845 30.3111H99.289V11.6445H106.845C112.8 11.6445 116.978 15.3778 116.978 20.9778C116.978 26.6667 112.8 30.3111 106.845 30.3111ZM106.845 26.7556C110.578 26.7556 112.8 24.0889 112.8 20.9778C112.8 17.6889 110.756 15.1111 106.845 15.1111H103.289V26.8445H106.845V26.7556ZM126.311 30.6667C122.045 30.6667 118.933 27.9111 118.933 23.5556C118.933 19.6445 121.867 16.4445 126.045 16.4445C130.222 16.4445 132.978 19.4667 132.978 23.9111V24.8H122.667C122.933 26.4 124.356 27.7333 126.667 27.7333C127.911 27.7333 129.511 27.2889 130.4 26.4L132 28.8C130.384 30.0748 128.369 30.7361 126.311 30.6667ZM129.511 22.2222C129.422 20.9778 128.445 19.3778 126.045 19.3778C123.822 19.3778 122.845 20.8889 122.667 22.2222H129.511ZM139.556 30.6667C136.978 30.6667 135.645 29.4222 135.645 26.9333V11.6445H139.2V25.9556C139.2 26.8445 139.733 27.4667 140.533 27.4667C141.067 27.4667 141.6 27.2889 141.778 27.1111L142.578 29.7778C142.045 30.3111 141.067 30.6667 139.556 30.6667ZM145.956 15.2889C145.676 15.2889 145.398 15.2337 145.139 15.1265C144.88 15.0193 144.645 14.8622 144.447 14.6641C144.249 14.466 144.092 14.2308 143.985 13.972C143.878 13.7131 143.822 13.4357 143.822 13.1556C143.822 12 144.8 11.1111 145.956 11.1111C147.2 11.1111 148.178 12 148.178 13.1556C148.178 14.4 147.2 15.2889 145.956 15.2889ZM147.822 30.4H144.267V16.7111H147.822V30.2222V30.4ZM158.933 30.4H155.022L149.422 16.8H153.333L156.978 26.2222L160.622 16.8H164.533L158.933 30.2222V30.4ZM172.622 30.6667C168.445 30.6667 165.245 27.9111 165.245 23.5556C165.245 19.6445 168.267 16.4445 172.356 16.4445C176.622 16.4445 179.378 19.4667 179.378 23.9111V24.8H169.067C169.333 26.4 170.756 27.7333 173.067 27.7333C174.222 27.7333 175.822 27.2889 176.711 26.4L178.4 28.8C176.784 30.0748 174.769 30.7361 172.711 30.6667H172.622ZM176 22.2222C175.822 20.9778 174.933 19.3778 172.445 19.3778C170.222 19.3778 169.245 20.8889 169.156 22.2222H176ZM185.778 30.3111H182.133V16.8889H185.689V18.6667C186.756 17.5111 188.445 16.5333 190.133 16.5333V20.0889C189.867 19.9111 189.511 19.9111 189.245 19.9111C187.911 19.9111 186.311 20.6222 185.689 21.5111V30.4L185.778 30.3111ZM198.045 35.8222C195.733 35.8222 193.867 35.2 192.267 33.8667L193.867 31.2C194.933 32.4445 196.533 32.9778 198.045 32.9778C200.445 32.9778 201.778 31.3778 201.778 29.4222V28C200.889 29.0667 199.111 30.1333 196.889 30.1333C193.867 30.1333 192.445 28.4445 192.445 25.7778V16.8889H196V24.5333C196 26.3111 197.067 27.0222 198.667 27.0222C200 27.0222 201.156 26.2222 201.778 25.4222V16.8889H205.422V29.3333C205.422 33.4222 202.489 35.7333 198.045 35.7333V35.8222ZM108.267 56.2667C102.578 56.2667 98.1334 52.2667 98.1334 46.4889C98.1334 40.7111 102.578 36.8 108.356 36.8C112.533 36.8 114.933 39.0222 116.356 41.4222L112.8 43.1111C112 41.6 110.311 40.4445 108.356 40.4445C104.8 40.4445 102.311 43.0222 102.311 46.4889C102.311 50.0445 104.8 52.7111 108.356 52.7111C110.311 52.7111 112 51.4667 112.8 49.9556L116.356 51.6445C115.57 53.0642 114.407 54.2391 112.995 55.0391C111.583 55.8392 109.977 56.2332 108.356 56.1778L108.267 56.2667ZM122.845 56.2667C120.356 56.2667 119.022 54.9333 119.022 52.4445V37.1556H122.578V51.5556C122.578 52.4445 123.111 53.0667 123.911 53.0667C124.445 53.0667 124.978 52.8 125.156 52.6222L125.956 55.2889C125.333 55.8222 124.356 56.1778 122.845 56.1778V56.2667ZM140.533 55.9111H136.889V54.1333C136 55.2 134.222 56.1778 132 56.1778C128.978 56.1778 127.556 54.5778 127.556 51.9111V42.3111H131.111V50.4889C131.111 52.4445 132.178 53.0667 133.778 53.0667C135.111 53.0667 136.267 52.2667 136.889 51.4667V42.3111H140.445V55.9111H140.533ZM147.733 51.4667C148.445 52.3556 149.689 53.0667 150.933 53.0667C153.067 53.0667 154.489 51.4667 154.489 49.0667C154.489 46.7556 153.067 45.1556 150.933 45.1556C149.689 45.1556 148.445 45.7778 147.733 46.7556V51.5556V51.4667ZM147.733 55.9111H144.178V37.1556H147.733V44.0889C148.239 43.4144 148.898 42.8693 149.655 42.4985C150.412 42.1277 151.246 41.9416 152.089 41.9556C155.645 41.9556 158.222 44.6222 158.222 49.0667C158.222 53.6 155.556 56.1778 152 56.1778C151.18 56.1882 150.368 56.0092 149.628 55.6546C148.888 55.3 148.239 54.7794 147.733 54.1333V55.9111Z" fill="white"/>
</svg>
