<svg width="240" height="64" viewBox="0 0 240 64" fill="none" xmlns="http://www.w3.org/2000/svg">
<path fill-rule="evenodd" clip-rule="evenodd" d="M175.916 15.3378H179.791V41.6507H175.916V15.3378ZM171.727 41.6507H167.852V23.0045H171.727V41.6507ZM169.79 14.6845C170.137 14.6719 170.483 14.7284 170.808 14.8507C171.132 14.973 171.429 15.1586 171.682 15.3968C171.934 15.635 172.137 15.9209 172.277 16.2381C172.418 16.5552 172.495 16.8972 172.502 17.2441C172.51 17.591 172.448 17.9359 172.321 18.2588C172.194 18.5817 172.004 18.8762 171.762 19.125C171.52 19.3738 171.231 19.5721 170.912 19.7083C170.593 19.8445 170.25 19.9158 169.903 19.9182C169.215 19.923 168.554 19.657 168.06 19.1778C167.567 18.6985 167.283 18.0445 167.268 17.357C167.253 16.6695 167.509 16.0038 167.981 15.5037C168.453 15.0036 169.103 14.7093 169.79 14.6845ZM163.664 41.6507H159.854V39.6116C158.489 41.1582 156.084 42.1289 153.823 42.1289C151.885 42.128 149.991 41.5527 148.379 40.4755C146.768 39.3984 145.512 37.8678 144.771 36.0772C144.029 34.2867 143.835 32.3164 144.213 30.4155C144.591 28.5146 145.523 26.7683 146.893 25.3973C148.731 23.5597 151.224 22.5267 153.823 22.5253C156.084 22.5253 158.363 23.3769 159.854 24.8836V23.0045H163.664V41.6507ZM153.947 26.4427C157.282 26.4427 159.907 28.8293 159.907 32.3271C159.907 35.8258 157.282 38.2329 153.947 38.2329C150.611 38.2329 148.076 35.664 148.076 32.3271C148.076 28.992 150.611 26.4427 153.947 26.4427ZM115.576 41.6516H111.767V23.0045H115.576V24.3067C116.422 23.512 118.008 22.5289 120.208 22.5253C122.911 22.5253 124.926 23.6631 126.308 25.4925C127.818 23.6818 130.307 22.5253 132.844 22.5253C137.604 22.5253 140.848 25.7396 140.848 30.7493V41.6507H137.039V30.7493C137.039 29.5789 136.574 28.4565 135.746 27.6288C134.918 26.8012 133.796 26.3358 132.626 26.3351C131.455 26.3363 130.333 26.8018 129.506 27.6294C128.679 28.457 128.213 29.5791 128.212 30.7493V41.6507H124.404V30.7493C124.402 29.5793 123.936 28.4576 123.109 27.6301C122.282 26.8027 121.16 26.337 119.99 26.3351C118.82 26.3361 117.698 26.8014 116.87 27.6291C116.042 28.4567 115.577 29.5789 115.576 30.7493V41.6507V41.6516Z" fill="white"/>
<path d="M86.1503 32C86.1489 33.6307 85.5005 35.1942 84.3474 36.3473C83.1943 37.5004 81.6308 38.1488 80.0001 38.1502C78.3694 38.1488 76.8059 37.5004 75.6528 36.3473C74.4997 35.1942 73.8513 33.6307 73.8499 32C73.8513 30.3693 74.4997 28.8058 75.6528 27.6527C76.8059 26.4996 78.3694 25.8512 80.0001 25.8498C81.6308 25.8512 83.1943 26.4996 84.3474 27.6527C85.5005 28.8058 86.1489 30.3693 86.1503 32ZM80.0001 11.5555C68.7272 11.5555 59.5557 20.7271 59.5557 32C59.5557 43.2729 68.7272 52.4444 80.0001 52.4444C84.1299 52.4444 88.113 51.2151 91.5166 48.8889L91.5752 48.8471L88.8206 45.6453L88.7743 45.6764C86.158 47.3607 83.1117 48.2553 80.0001 48.2533C71.0374 48.2533 63.7468 40.9627 63.7468 32C63.7468 23.0373 71.0374 15.7467 80.0001 15.7467C88.9628 15.7467 96.2534 23.0373 96.2534 32C96.2534 33.1618 96.1245 34.3378 95.8703 35.4933C95.3565 37.6027 93.8792 38.2489 92.7699 38.1644C91.6543 38.0729 90.3503 37.2782 90.3414 35.3333V32C90.3414 26.2969 85.7032 21.6587 80.0001 21.6587C74.297 21.6587 69.6588 26.2969 69.6588 32C69.6588 37.7031 74.297 42.3413 80.0001 42.3413C81.3629 42.3446 82.7128 42.0764 83.9708 41.5523C85.2288 41.0282 86.3698 40.2588 87.3272 39.2889C87.8827 40.1595 88.6334 40.8886 89.5199 41.4185C90.4063 41.9484 91.404 42.2643 92.4339 42.3413C94.1162 42.4724 95.7882 41.9822 97.1334 40.9635C98.3592 40.0338 99.2739 38.688 99.7797 37.0711C99.8606 36.8107 100.009 36.2124 100.01 36.2089L100.014 36.1875C100.312 34.8898 100.445 33.5973 100.445 32C100.445 20.7271 91.273 11.5555 80.0001 11.5555Z" fill="white"/>
</svg>
