<svg width="240" height="64" viewBox="0 0 240 64" fill="none" xmlns="http://www.w3.org/2000/svg">
<path fill-rule="evenodd" clip-rule="evenodd" d="M182.756 49.6889H187.911L200.622 15.1111H195.378L182.756 49.6889ZM170.845 37.6C167.556 37.6 165.689 34.8444 165.689 32.0889C165.689 29.2444 167.467 26.4889 170.845 26.4889C174.045 26.4889 175.911 28.9777 175.911 32.0889C175.911 35.0222 174.134 37.6 170.845 37.6ZM165.778 24.8889V23.1111H160.978V49.7778H165.867V39.2889C167.373 40.7311 169.382 41.5284 171.467 41.5111C176 41.5111 180.356 38.0444 180.356 32.0889C180.441 30.8703 180.275 29.6472 179.866 28.4959C179.458 27.3445 178.817 26.2897 177.983 25.3972C177.149 24.5048 176.14 23.7938 175.019 23.3087C173.898 22.8236 172.688 22.5748 171.467 22.5778C168.178 22.5778 166.4 24.3555 165.778 24.9778V24.8889ZM149.334 26.4C152.622 26.4 153.245 29.0666 153.334 30.1333H144.889C145.022 29.0651 145.554 28.0868 146.379 27.3944C147.203 26.7021 148.258 26.3468 149.334 26.4ZM140 32.0889C140 37.4222 143.734 41.5111 149.511 41.5111C155.289 41.5111 157.689 37.4222 157.689 37.4222L154.045 35.0222C154.045 35.0222 152.8 37.6 149.6 37.6C146.222 37.6 144.8 34.6666 144.8 33.6889H158.134V32C158.134 26.5778 154.934 22.4889 149.422 22.4889C143.734 22.4889 140 26.6666 140 32V32.0889ZM139.645 40.9777L133.067 23.1111H127.822L121.156 41.1555H126.578L130.4 29.6889H130.489L134.311 41.1555H139.645V40.9777ZM111.467 37.6C108.178 37.6 106.756 34.9333 106.756 32.3555C106.756 29.8666 108.178 27.5555 111.467 27.5555C114.845 27.5555 115.911 30.4 115.911 32.5333C115.911 34.5777 114.845 37.6 111.467 37.6ZM107.378 24.5333C107.467 24 108 19.2 114.489 19.2H118.489L120 15.1111H114.667C107.467 15.1111 101.956 18.4889 101.956 30.1333C101.956 36.3555 104.622 41.6889 111.378 41.6889C117.689 41.6889 120.978 36.9778 120.978 32.3555C121.062 30.7334 120.695 29.1197 119.918 27.6932C119.142 26.2666 117.985 25.0829 116.577 24.2731C115.169 23.4632 113.565 23.0589 111.941 23.1048C110.317 23.1507 108.738 23.6452 107.378 24.5333ZM82.1336 23.2L81.9558 23.0222H77.6891V41.0666H82.6669V30.5778L87.5558 36.6222V36.8889H88.8891L93.8669 30.5778V41.0666H98.8447V23.0222H94.578L88.3558 30.6666L82.1336 23.2ZM64.8891 37.6889C62.4002 37.6889 62.2224 36.1777 62.2224 35.6444C62.2224 34.2222 63.2891 33.4222 66.2224 33.0666L68.6224 32.9777H68.978V33.5111C68.978 36 67.5558 37.6889 64.8891 37.6889ZM73.6002 31.5555V30.5778C73.3336 24.8889 70.9335 22.5778 65.8669 22.5778C62.3113 22.5778 60.0891 24 59.2891 24.5333L60.6224 28.2666C60.6224 28.2666 62.7558 26.4 65.4224 26.4C69.1558 26.4 68.7113 29.5111 68.7113 29.5111C67.4669 29.5111 57.1558 28.9777 57.1558 35.6444C57.1558 39.2889 60.3558 41.4222 63.6447 41.4222C66.6669 41.4222 68.3558 39.9111 68.8891 39.2889V41.0666H73.6002C73.778 41.0666 73.6002 39.5555 73.6002 36.9777V31.6444V31.5555ZM46.7558 27.5555H44.178V19.3777H46.7558C48.7113 19.4666 51.5558 20.5333 51.5558 23.5555C51.5558 26.4889 48.7113 27.5555 46.7558 27.5555ZM39.1113 15.1111V41.1555H44.2669V31.9111H47.1113C52.4447 31.9111 56.8891 29.2444 56.8891 23.5555C56.8891 17.9555 52.4447 15.1111 47.2891 15.1111H39.1113Z" fill="white"/>
</svg>
