<svg width="240" height="64" viewBox="0 0 240 64" fill="none" xmlns="http://www.w3.org/2000/svg">
<path d="M43.2891 40.3555V28.4444H50.4002V24H31.1113V28.4444H38.2224V40.3555H43.2891ZM57.5113 33.5111V24H52.4447V40.3555H56.8891L65.4224 30.8444V40.3555H70.4002V24H65.9558L57.4224 33.5111H57.5113ZM87.1113 34.3111V40.3555H92.0891V24H87.1113V30.0444H79.1113V24H74.1336V40.3555H79.1113V34.3111H87.1113ZM105.956 40.3555C107.111 40.3555 108.089 40.2666 109.067 40C110.327 39.6925 111.441 38.9572 112.219 37.9197C112.997 36.8821 113.391 35.6067 113.334 34.3111C113.334 31.6444 111.911 29.6889 109.6 28.8889C108.449 28.5413 107.246 28.391 106.045 28.4444H100.889V24H95.9113V40.3555H105.956ZM105.067 32.3555L107.022 32.4444C107.414 32.5452 107.759 32.7762 108.001 33.0993C108.243 33.4224 108.369 33.8185 108.356 34.2222C108.356 35.1111 107.822 35.8222 107.022 36.1778C106.489 36.4444 105.956 36.4444 105.067 36.4444H100.889V32.2666H105.067V32.3555ZM122.222 34.1333L128.178 40.3555H134.845L126.578 31.8222L134.578 24H128.267L122.222 30.2222H120.889V24H115.911V40.3555H120.889V34.1333H122.222ZM145.067 23.5555C138.4 23.5555 134.4 27.3777 134.4 32.2666C134.4 37.0666 138.4 40.8889 145.067 40.8889C151.734 40.8889 155.734 37.0666 155.734 32.2666C155.734 27.3777 151.734 23.5555 145.067 23.5555ZM145.067 36.8889C141.689 36.8889 139.645 34.9333 139.645 32.2666C139.645 29.6 141.689 27.6444 144.978 27.6444C148.356 27.6444 150.489 29.6 150.489 32.2666C150.489 34.9333 148.356 36.8889 145.067 36.8889ZM172.267 23.1111H167.289V24.8C161.067 24.8889 157.334 27.4666 157.334 32.1778C157.334 36.8889 161.067 39.2889 167.289 39.4666V41.0666H172.267V39.4666C178.578 39.2889 182.311 36.8 182.311 32.1778C182.311 27.5555 178.578 24.8889 172.267 24.8V23.1111ZM167.289 35.9111C163.911 35.8222 162.4 34.4 162.4 32.1778C162.4 30.0444 163.911 28.4444 167.289 28.2666V35.9111ZM172.267 28.2666C175.822 28.4444 177.245 30.0444 177.245 32.1778C177.245 34.4 175.734 35.7333 172.267 35.9111V28.2666ZM198.934 23.1111H193.778V24.8C187.556 24.8889 183.822 27.4666 183.822 32.1778C183.822 36.8889 187.556 39.2889 193.778 39.4666V41.0666H198.756V39.4666C204.978 39.2889 208.8 36.8 208.8 32.1778C208.8 27.5555 205.067 24.8889 198.756 24.8V23.1111H198.934ZM193.778 35.9111C190.4 35.8222 188.889 34.4 188.889 32.1778C188.889 30.0444 190.4 28.4444 193.778 28.2666V35.9111ZM198.756 28.2666C202.311 28.4444 203.734 30.0444 203.734 32.1778C203.734 34.4 202.222 35.7333 198.756 35.9111V28.2666Z" fill="white"/>
</svg>
