<svg width="240" height="64" viewBox="0 0 240 64" fill="none" xmlns="http://www.w3.org/2000/svg">
<path d="M142.079 40.4224C141.279 41.9224 140.199 41.8224 139.019 41.8224V46.8024C139.019 46.8024 139.989 47.0124 141.489 47.0124C143.849 47.0124 145.789 45.9924 147.019 43.3724C148.259 40.7524 148.419 35.8724 149.009 30.5724H154.759V46.5324H160.289V25.7524H143.959C143.319 32.6624 142.939 38.7624 142.079 40.4224ZM127.899 25.2724C122.689 25.2724 118.819 28.5924 117.899 33.7324H115.059V25.7524H109.529V46.4824H115.059V38.5024H117.909C118.809 43.6424 122.629 46.9624 127.899 46.9624C133.909 46.9624 138.049 42.5624 138.049 36.0924C138.049 29.6124 133.859 25.2724 127.899 25.2724ZM127.899 41.9724C125.049 41.9724 123.119 39.7324 123.119 36.0924C123.119 32.4924 125.049 30.1924 127.899 30.1924C130.739 30.1924 132.679 32.4524 132.679 36.0924C132.679 39.7324 130.739 41.9824 127.899 41.9824V41.9724ZM173.129 25.2724C170.329 25.2724 167.649 25.6424 165.279 26.3924V31.3224C165.279 31.3224 168.289 30.2024 172.379 30.2024C176.939 30.2024 177.429 32.5024 177.429 33.5724V33.9424C177.429 33.9424 175.169 33.5724 172.799 33.5724C165.179 33.5724 163.559 37.5324 163.559 40.2724C163.559 42.9924 165.279 46.9624 171.299 46.9624C172.494 46.9909 173.682 46.767 174.785 46.3052C175.888 45.8434 176.881 45.1541 177.699 44.2824H177.899V46.4224H182.959V34.8624C182.959 31.2124 182.159 25.2724 173.129 25.2724ZM177.479 40.1024C177.479 40.1024 176.029 42.3024 172.699 42.3024C170.599 42.3024 169.639 41.3924 169.639 40.0524C169.639 38.7124 170.709 37.5324 174.419 37.5324H177.529V40.1024H177.479ZM80.6291 46.0524C82.135 41.4992 84.6884 37.3629 88.0838 33.9762C91.4793 30.5894 95.6221 28.0467 100.179 26.5524C100.819 26.3524 101.149 25.6524 100.929 25.0524C100.829 24.6824 100.559 24.4124 100.179 24.3124C95.6087 22.8433 91.4527 20.3092 88.0537 16.9188C84.6547 13.5285 82.11 9.37909 80.6291 4.81242C80.5805 4.66424 80.5031 4.52715 80.4012 4.40908C80.2993 4.29102 80.175 4.19432 80.0355 4.12458C79.8961 4.05483 79.7441 4.01343 79.5885 4.00276C79.433 3.9921 79.2768 4.01237 79.1291 4.06242C78.7491 4.17242 78.4791 4.44242 78.3691 4.81242C76.8717 9.37021 74.3213 13.511 70.9246 16.8989C67.528 20.2869 63.3807 22.8267 58.8191 24.3124C58.1691 24.5224 57.8491 25.2124 58.0691 25.8124C58.1691 26.1824 58.4391 26.4524 58.8191 26.5624C68.0591 29.5624 75.3091 36.7824 78.3691 46.0524C78.5891 46.6924 79.2791 47.0124 79.8691 46.8024C80.1991 46.6924 80.4691 46.4224 80.6291 46.0524Z" fill="white"/>
</svg>
