<svg width="240" height="64" viewBox="0 0 240 64" fill="none" xmlns="http://www.w3.org/2000/svg">
<mask id="mask0_1772_38" style="mask-type:luminance" maskUnits="userSpaceOnUse" x="24" y="15" width="192" height="34">
<path d="M24 15.1111H216V48.5333H24V15.1111Z" fill="white"/>
</mask>
<g mask="url(#mask0_1772_38)">
<path fill-rule="evenodd" clip-rule="evenodd" d="M76.3556 40.2666C79.6444 40.2666 82.0444 38.4 82.0444 35.8222V35.7333C82.0444 33.7778 80.8 32.4444 79.3778 31.9111C80.7111 31.2 81.6 30.3111 81.6 28.5333C81.6 26.1333 79.2889 24.3555 76.0889 24.3555H68.6222V40.2666H76.3556ZM72 30.7555V27.3778V27.2889H76C77.1556 27.2889 78.0444 28.1778 78.0444 29.0666C78.0444 30.0444 77.2444 30.7555 76 30.7555H72ZM78.6667 35.3778C78.6667 36.4444 77.6889 37.3333 76.3556 37.3333H71.9111V33.5111H76.3556C77.7778 33.5111 78.6667 34.2222 78.6667 35.3778ZM89.5111 33.8666L94.9333 40.0889H99.3778L92.2667 32L98.8444 24.4444H94.7556L89.5111 30.4889H88.6222V24.4444H85.0667V40.0889H88.6222V33.8666H89.5111ZM107.822 24.1778C102.933 24.1778 99.4667 27.6444 99.4667 32.3555C99.4667 37.0666 102.933 40.4444 107.822 40.4444C112.711 40.4444 116.178 37.0666 116.178 32.3555C116.178 27.6444 112.711 24.1778 107.822 24.1778ZM107.822 27.3778C110.667 27.3778 112.533 29.3333 112.533 32.3555C112.533 35.2889 110.667 37.3333 107.822 37.3333C105.067 37.3333 103.111 35.2889 103.111 32.3555C103.111 29.3333 105.067 27.3778 107.822 27.3778ZM133.156 24.4444H129.6V30.6666H122.578V24.4444H119.022V40.0889H122.578V33.8666H129.6V40.0889H133.156V24.4444ZM140.622 27.6444V40.0889H144V27.6444H149.333V24.4444H135.111V27.6444H140.622ZM164.444 40V31.3778V31.2C164.444 26.7555 162.044 24.0889 158.133 24.0889C155.289 24.0889 152.533 25.6889 151.733 28.3555L154.844 28.8889C155.166 28.3302 155.634 27.8697 156.198 27.5565C156.762 27.2434 157.4 27.0894 158.044 27.1111C159.911 27.1111 160.978 28.4444 161.156 30.4889H157.778C153.067 30.4889 150.844 32.5333 150.844 35.3778C150.844 38.3111 153.067 40.3555 156.267 40.3555C157.264 40.3647 158.246 40.1158 159.118 39.6329C159.991 39.1501 160.723 38.4497 161.244 37.6L161.956 40H164.444ZM157.867 33.3333H161.067C161.067 35.8222 159.378 37.5111 157.156 37.5111C155.378 37.5111 154.311 36.6222 154.311 35.2889C154.311 34.2222 155.2 33.3333 157.867 33.3333ZM172.533 33.8666L177.956 40.0889H182.4L175.289 32L181.867 24.4444H177.778L172.533 30.4889H171.644V24.4444H168.089V40.0889H171.644V33.8666H172.533ZM188.8 27.6444V40.0889H192.178V27.6444H197.6V24.4444H183.378V27.6444H188.8ZM202.489 33.3333H215.111V32.1778C215.111 27.6444 211.644 24.1778 206.933 24.1778C202.222 24.1778 198.844 27.6444 198.844 32.3555C198.807 33.4278 198.991 34.4963 199.384 35.4945C199.778 36.4927 200.372 37.3994 201.131 38.1581C201.889 38.9167 202.796 39.5112 203.794 39.9045C204.793 40.2979 205.861 40.4816 206.933 40.4444C210.311 40.4444 213.333 38.8444 214.489 35.9111L211.2 35.3778C210.489 36.4444 208.978 37.3333 207.2 37.3333C204.622 37.3333 202.844 35.7333 202.489 33.3333ZM211.378 30.6666H202.756V30.5778C202.98 29.6225 203.527 28.7739 204.304 28.1748C205.081 27.5757 206.041 27.2628 207.022 27.2889C208.022 27.2796 208.996 27.6081 209.787 28.221C210.577 28.834 211.138 29.6956 211.378 30.6666ZM26.3111 17.4222C24 19.8222 24 23.5555 24 31.1111V32.4444C24 40 24 43.8222 26.3111 46.1333C28.7111 48.5333 32.4444 48.5333 40 48.5333H41.3333C48.8889 48.5333 52.7111 48.5333 55.0222 46.1333C57.4222 43.8222 57.4222 40 57.4222 32.4444V31.1111C57.4222 23.6444 57.4222 19.8222 55.0222 17.4222C52.7111 15.1111 48.8889 15.1111 41.3333 15.1111H40C32.5333 15.1111 28.7111 15.1111 26.3111 17.4222ZM29.5998 25.2444C29.7776 33.9555 34.1332 39.1111 41.7776 39.1111H42.222V34.2222C44.9776 34.4889 47.1109 36.5333 47.9998 39.2H51.9109C50.8443 35.2 47.9998 33.0667 46.222 32.1778C47.4513 31.409 48.511 30.3977 49.3363 29.2056C50.1616 28.0135 50.7352 26.6657 51.0221 25.2444H47.4665C46.6665 28.0889 44.3554 30.4889 42.1332 30.7555V25.2444H38.5776V34.9333C36.3554 34.3111 33.5998 31.6444 33.422 25.2444H29.5998Z" fill="white"/>
</g>
</svg>
