<svg width="240" height="64" viewBox="0 0 240 64" fill="none" xmlns="http://www.w3.org/2000/svg">
<path d="M32.3554 42.6667L26.6665 21.7778H30.3998L34.8443 37.9556L39.4665 21.7778H43.0221L47.6443 38.0445L52.0887 21.7778H55.8221L50.1332 42.6667H45.6887L41.2443 27.0222L36.6221 42.6667H32.3554ZM58.3998 21.6889H61.9554V42.6667H58.3998V21.6889ZM69.5109 39.3778H78.2221V42.6667H66.0443V21.6889H69.5998V39.4667L69.5109 39.3778ZM89.1554 21.7778C92.0887 21.7778 94.4887 22.7556 96.4443 24.8C98.311 26.7556 99.2887 29.2445 99.2887 32.2667C99.2887 35.1111 98.3998 37.6 96.4443 39.6445C95.5128 40.6359 94.3813 41.418 93.1247 41.9391C91.8681 42.4601 90.5151 42.7081 89.1554 42.6667H80.7998V21.6889H89.1554V21.7778ZM89.1554 39.4667C90.0705 39.5068 90.9833 39.3443 91.8284 38.9909C92.6735 38.6375 93.4301 38.1019 94.0443 37.4222C95.3138 36.0122 95.9835 34.1626 95.9109 32.2667C95.9565 31.3266 95.8149 30.3868 95.4945 29.5018C95.1741 28.6168 94.6811 27.8042 94.0443 27.1111C93.4226 26.441 92.6647 25.9118 91.8214 25.5591C90.9781 25.2065 90.069 25.0386 89.1554 25.0667H84.2665V39.4667H89.1554ZM118.133 36.7111C118.133 38.4889 117.511 39.8222 116.267 40.9778C115.022 42.1333 113.511 42.7556 111.733 42.7556H102.578V21.6H111.022C112.8 21.6 114.222 22.2222 115.466 23.3778C116.04 23.8907 116.496 24.5217 116.803 25.2275C117.11 25.9334 117.261 26.6972 117.244 27.4667C117.244 29.2445 116.533 30.6667 115.111 31.7333C116.029 32.1746 116.801 32.8695 117.337 33.7358C117.873 34.6022 118.149 35.6038 118.133 36.6222V36.7111ZM106.133 24.8889V30.4H111.022C111.387 30.4124 111.751 30.3496 112.091 30.2155C112.431 30.0814 112.74 29.8789 112.998 29.6205C113.256 29.3621 113.459 29.0534 113.593 28.7134C113.727 28.3735 113.79 28.0097 113.778 27.6445C113.79 27.2869 113.729 26.9305 113.601 26.5966C113.472 26.2628 113.278 25.9582 113.029 25.7011C112.78 25.444 112.482 25.2396 112.152 25.1C111.823 24.9605 111.469 24.8887 111.111 24.8889H106.133ZM111.733 39.3778C113.333 39.3778 114.578 38.1333 114.578 36.4445C114.578 34.8445 113.333 33.5111 111.733 33.5111H106.133V39.3778H111.733ZM124.889 39.3778H134.311V42.6667H121.422V21.6889H134.133V24.9778H124.889V30.4889H133.422V33.6889H124.889V39.3778ZM149.6 42.6667L145.067 35.0222H140.978V42.6667H137.422V21.6889H145.955C147.911 21.6889 149.511 22.4 150.844 23.7333C151.633 24.5028 152.216 25.4582 152.539 26.5116C152.863 27.5651 152.916 28.683 152.695 29.7625C152.474 30.8421 151.985 31.8488 151.273 32.6902C150.562 33.5315 149.65 34.1806 148.622 34.5778L153.422 42.6667H149.6ZM140.978 24.8889V32H145.955C147.733 32 149.244 30.4 149.244 28.4445C149.244 26.5778 147.822 24.8889 145.955 24.8889H140.978ZM168.178 42.6667L163.733 35.0222H159.555V42.6667H156.089V21.6889H164.622C166.489 21.6889 168.178 22.4 169.422 23.7333C170.211 24.5028 170.794 25.4582 171.117 26.5116C171.441 27.5651 171.494 28.683 171.273 29.7625C171.052 30.8421 170.563 31.8488 169.851 32.6902C169.139 33.5315 168.228 34.1806 167.2 34.5778L172.089 42.6667H168.178ZM159.555 24.8889V32H164.622C166.4 32 167.911 30.4 167.911 28.4445C167.911 26.4889 166.4 24.8889 164.622 24.8889H159.555ZM174.667 21.6889H178.133V42.6667H174.578V21.6889H174.667ZM185.778 39.3778H195.111V42.6667H182.222V21.6889H195.022V24.9778H185.689V30.4889H194.222V33.6889H185.778V39.3778ZM197.6 37.9556L200.622 36.1778C201.511 38.5778 203.2 39.7333 205.867 39.7333C208.533 39.7333 209.778 38.5778 209.778 36.9778C209.778 36.0889 209.422 35.4667 208.8 35.0222C208.089 34.5778 206.755 34.1333 204.978 33.5111C202.933 32.8889 201.955 32.5333 200.533 31.6445C199.853 31.1704 199.307 30.5282 198.949 29.7805C198.59 29.0328 198.432 28.205 198.489 27.3778C198.44 26.5351 198.591 25.6928 198.931 24.9201C199.271 24.1475 199.79 23.4665 200.444 22.9333C201.825 21.8236 203.563 21.2548 205.333 21.3333C208.711 21.3333 211.378 23.1111 212.711 25.9556L209.778 27.6445C209.43 26.7569 208.816 25.9986 208.02 25.4734C207.225 24.9483 206.286 24.682 205.333 24.7111C203.289 24.7111 201.955 25.6889 201.955 27.3778C201.955 28.8889 203.022 29.6 206.222 30.5778L208 31.2L209.6 31.8222C210.311 32.0889 210.844 32.3556 211.111 32.7111C212.267 33.5111 213.511 34.9333 213.333 36.9778C213.333 38.7556 212.622 40.3556 211.2 41.4222C209.669 42.5813 207.786 43.1777 205.867 43.1111C201.689 43.1111 198.755 41.1556 197.6 37.9556Z" fill="white"/>
</svg>
